<svg width="353" height="91" xmlns="http://www.w3.org/2000/svg" xmlns:xlink="http://www.w3.org/1999/xlink" xml:space="preserve" overflow="hidden"><defs><clipPath id="clip0"><rect x="3295" y="605" width="353" height="91"/></clipPath><linearGradient x1="3648" y1="650.5" x2="3295" y2="650.5" gradientUnits="userSpaceOnUse" spreadMethod="reflect" id="fill1"><stop offset="0" stop-color="#C6FF00" stop-opacity="0.776471"/><stop offset="0.5" stop-color="#00FF88"/><stop offset="1" stop-color="#0B3D2E"/></linearGradient></defs><g clip-path="url(#clip0)" transform="translate(-3295 -605)"><path d="M3612.14 694.916C3569.48 700.433 3572.76 673.251 3549.12 662.566 3520.44 649.602 3508.65 685.897 3485.89 693.684 3479.24 695.961 3471.87 696.499 3464.91 695.563 3441.01 692.348 3436.1 671.424 3417.06 662.582 3388.89 649.501 3376.9 685.805 3354.68 693.598 3343.55 697.503 3329.98 696.147 3319.53 690.93 3308.79 685.508 3300.71 676.005 3297.11 664.576 3293.43 652.797 3294.59 640.046 3300.35 629.119 3307.3 616.06 3317.78 610.603 3331.21 606.631 3369.82 602.299 3368.07 623.51 3392.88 638.51 3419.25 654.45 3432.64 617.247 3456.47 608.156 3509.85 587.795 3514.7 674.404 3562.7 627.983 3622.43 557.938 3691.73 670.387 3612.14 694.916Z" fill="url(#fill1)" fill-rule="evenodd"/></g></svg>